HIERARCHY
ROOT pelvis
{
  OFFSET 0 100 0
  CHANNELS 6 Xposition Yposition Zposition Zrotation Xrotation Yrotation
  JOINT pelvis_right_femur
  {
    OFFSET -10.78128 -3.44521 -0.5502486
    CHANNELS 3 Zrotation Xrotation Yrotation
    JOINT right_femur_tibia
    {
      OFFSET -0.8047443 -44.0398 -0.1307829
      CHANNELS 3 Zrotation Xrotation Yrotation
      JOINT right_tibia_foot
      {
        OFFSET 3.006224 -47.83518 -5
        CHANNELS 3 Zrotation Xrotation Yrotation
        End Site
        {
          OFFSET 0 -5 15
        }
      }
    }
  }
  JOINT pelvis_left_femur
  {
    OFFSET 10.78128 -3.44521 -0.5502486
    CHANNELS 3 Zrotation Xrotation Yrotation
    JOINT left_femur_tibia
    {
      OFFSET 0.8047443 -44.0398 -0.1307829
      CHANNELS 3 Zrotation Xrotation Yrotation
      JOINT left_tibia_foot
      {
        OFFSET -4.370144 -48.10324 -4.275266
        CHANNELS 3 Zrotation Xrotation Yrotation
        End Site
        {
          OFFSET 0 -5 15
        }
      }
    }
  }
  JOINT pelvis_spine1
  {
    OFFSET 0 6.468898 -3.129235
    CHANNELS 3 Zrotation Xrotation Yrotation
    JOINT spine1
    {
      OFFSET 0 23.15396 4.99043
      CHANNELS 3 Zrotation Xrotation Yrotation
      JOINT spine2
      {
        OFFSET 0 20.79997 -5.064912
        CHANNELS 3 Zrotation Xrotation Yrotation
        JOINT neck
        {
          OFFSET 0 14.38658 9.616178
          CHANNELS 3 Zrotation Xrotation Yrotation
          End Site
          {
            OFFSET 0 20 0
          }
        }
      }
      JOINT right_manubrium
      {
        OFFSET -5.722621 16.35077 3.967754
        CHANNELS 3 Zrotation Xrotation Yrotation
        JOINT right_clavicle
        {
          OFFSET -13.16364 1.694482 -4.693211
          CHANNELS 3 Zrotation Xrotation Yrotation
          JOINT right_humerus
          {
            OFFSET -28.5034 -0.3100689 -2.792744
            CHANNELS 3 Zrotation Xrotation Yrotation
            JOINT right_radius
            {
              OFFSET -25.15693 0.02248979 -1.271978
              CHANNELS 3 Zrotation Xrotation Yrotation
              End Site
              {
                OFFSET -15 0 0
              }
            }
          }
        }
      }
      JOINT left_manubrium
      {
        OFFSET 5.722621 16.35077 3.967754
        CHANNELS 3 Zrotation Xrotation Yrotation
        JOINT left_clavicle
        {
          OFFSET 13.16364 1.694482 -4.693211
          CHANNELS 3 Zrotation Xrotation Yrotation
          JOINT left_humerus
          {
            OFFSET 29.39168 -1.063119 -2.237045
            CHANNELS 3 Zrotation Xrotation Yrotation
            JOINT left_radius
            {
              OFFSET 24.59957 -0.9528479 0.9047498
              CHANNELS 3 Zrotation Xrotation Yrotation
              End Site
              {
                OFFSET 15 -0 -0
              }
            }
          }
        }
      }
    }
  }
}
MOTION
Frames: 17
Frame Time: 0.0416666666667
0 103.5113 0 0.9280217 -2.814947 0.05237387 1.954003 -12.27761 7.413912 -0 41.01303 -0 -7.005838 -16.33958 -3.748985 -6.190542 11.51394 -24.31464 -0 5.458357 -0 0.3803697 -18.69321 23.09399 -1.496299 -1.03539 2.620555 2.320276 6.06526 -7.602161 1.336757 23.49548 7.269911 4.021822 -24.32108 8.573557 5.013352 -17.48792 10.61492 88.33661 35.08084 -22.85823 -0 0 13.59492 -5.639599 7.004283 3.177189 4.735319 -19.14675 -3.044384 -100.4072 42.03411 27.86873 0 0 -22.48764 -10.3243 18.19196 28.06491
0.2629655 103.4673 1.056259 0.2612086 -2.081946 0.0075906 2.673986 -13.85324 7.98435 -0 42.05498 -0 -7.483121 -15.91467 -3.88851 -5.862109 10.7625 -24.6837 -0 5.973591 -0 -1.391783 -19.68074 22.35976 -1.517384 -1.017892 2.685277 2.296697 6.100582 -7.537525 1.323255 23.57748 7.252757 3.980576 -24.28597 8.540941 4.923736 -17.54583 10.66444 88.24889 35.14022 -22.5991 -0 0 13.51672 -6.109222 7.242143 3.389269 4.608465 -19.1221 -3.046398 -100.3554 41.89967 27.9357 0 0 -22.34888 -10.38373 18.24061 28.08272
0.5161559 103.3017 2.374066 -0.005149429 -0.7407748 0.009420224 3.493201 -18.08505 8.093884 -0 38.35027 -0 -6.975891 -14.91939 -4.073943 -5.933659 11.01806 -23.89495 -0 5.928786 -0 -0.2544466 -20.93813 22.37889 -1.433813 -0.9986153 2.554192 2.406264 6.554487 -8.013636 1.12498 22.64521 7.670088 4.296268 -24.23515 8.533386 5.603395 -17.13383 10.67955 88.62452 35.56555 -23.70465 -0 0 13.26564 -6.5507 8.125691 3.813639 5.321616 -19.73169 -3.093982 -97.62471 39.92489 24.96257 0 0 -23.45778 -8.238121 16.88597 25.68703
0.7575513 102.9906 3.981057 -0.2129105 0.3816518 0.05484021 4.209603 -21.80904 8.123445 -0 34.80447 -0 -6.520289 -13.82977 -4.179436 -5.968295 11.3916 -23.10325 -0 5.903624 -0 0.739588 -21.97237 22.29 -1.312355 -1.01703 2.395441 2.469429 6.838361 -8.362816 1.04151 22.02984 7.935398 4.461687 -24.21415 8.60451 5.928049 -16.88295 10.64831 89.14549 35.60395 -24.72161 -0 0 13.06378 -6.775593 8.776305 3.961718 5.830603 -20.20057 -3.168424 -95.99306 38.81958 23.12132 0 0 -24.56648 -7.108799 16.07404 24.48399
0.98128 102.5085 5.969558 -0.3906079 1.476665 0.1598495 4.927038 -25.6305 8.020814 -0 30.75358 -0 -6.067408 -12.37713 -4.182512 -5.987075 11.95884 -22.1488 -0 5.976427 -0 1.797096 -22.90973 22.0738 -1.237912 -1.049405 2.272974 2.537406 7.11352 -8.666099 0.9620307 21.45883 8.177055 4.610356 -24.19856 8.664528 6.247596 -16.63798 10.63265 89.518 35.67105 -25.53993 -0 0 12.85868 -7.063103 9.414747 4.177133 6.297839 -20.63515 -3.208872 -94.4638 37.61226 21.3783 0 0 -25.5548 -5.907815 15.28027 23.16637
1.185348 101.8466 8.417471 -0.5830403 2.47849 0.3431162 5.637672 -29.28747 7.773402 -0 26.56339 -0 -5.724979 -10.54689 -4.048074 -5.942593 12.65058 -21.08539 -0 6.303168 -0 2.608724 -23.65853 21.57238 -1.170796 -1.084451 2.166424 2.589569 7.34806 -8.91368 0.9061726 20.99875 8.368773 4.712034 -24.17822 8.725302 6.466042 -16.44255 10.61952 89.86541 35.67106 -26.22873 -0 0 12.65413 -7.38952 10.01326 4.38032 6.673576 -21.01362 -3.250187 -93.22182 36.59089 19.95474 0 0 -26.45408 -4.96128 14.63603 22.12864
1.368019 101.0185 11.40522 -0.8238802 3.350122 0.6240223 6.337358 -32.57124 7.36333 -0 22.44698 -0 -5.561897 -8.363762 -3.760692 -5.798149 13.43477 -19.93014 -0 7.080773 -0 2.932365 -24.10847 20.63885 -1.133933 -1.111321 2.099835 2.632417 7.563498 -9.102465 0.8546245 20.63388 8.520097 4.782433 -24.14645 8.76099 6.629635 -16.28038 10.62574 90.10869 35.68332 -26.70998 -0 0 12.43709 -7.819854 10.57896 4.641101 6.952891 -21.33218 -3.280175 -92.16156 35.61304 18.75232 0 0 -27.16576 -4.120826 14.06803 21.18079
1.526852 100.0704 15.00757 -1.138529 4.027774 1.014535 6.99538 -35.1279 6.7746 -0 18.72618 -0 -5.640631 -5.975888 -3.329572 -5.517572 14.25737 -18.70956 -0 8.582969 -0 2.490562 -24.07508 19.13095 -1.121114 -1.120248 2.075402 2.660651 7.762212 -9.23111 0.8048425 20.37396 8.628573 4.819746 -24.09343 8.764125 6.728764 -16.15748 10.65371 90.26353 35.70916 -26.98464 -0 0 12.20453 -8.381881 11.11396 4.966155 7.120573 -21.58541 -3.308619 -91.28342 34.7071 17.78818 0 0 -27.6654 -3.42945 13.58126 20.37203
1.657969 99.0946 19.2854 -1.534856 4.439251 1.506405 7.562299 -36.51071 6.006047 -0 15.77916 -0 -5.989606 -3.67571 -2.806025 -5.081909 15.02736 -17.44162 -0 11.18792 -0 1.074734 -23.29164 16.98726 -1.138477 -1.103389 2.104876 2.672882 7.950958 -9.293925 0.7507264 20.22255 8.693912 4.826915 -24.01221 8.723156 6.772041 -16.07436 10.71021 90.30308 35.77154 -27.01525 -0 0 11.95609 -9.108109 11.61311 5.381166 7.164222 -21.76457 -3.335205 -90.56984 33.84439 17.0569 0 0 -27.89736 -2.864626 13.1566 19.66927
1.75716 98.23879 24.26874 -1.989548 4.514501 2.052846 7.986149 -36.26288 5.109438 -0 13.99547 -0 -6.565988 -1.904034 -2.311289 -4.512504 15.58692 -16.12567 -0 15.37676 -0 -1.303193 -21.44717 14.3504 -1.187863 -1.05443 2.19817 2.664489 8.133163 -9.283337 0.6898963 20.18632 8.714111 4.803947 -23.8947 8.631066 6.759407 -16.03725 10.79944 90.2086 35.8791 -26.76934 -0 0 11.70051 -10.0276 12.07317 5.903125 7.071064 -21.85862 -3.362005 -90.02151 33.02255 16.57524 0 0 -27.81802 -2.433558 12.78924 19.07714
1.823247 97.69835 29.93162 -2.431679 4.188646 2.551343 8.235504 -34.09672 4.229033 -0 13.64821 -0 -7.22559 -1.139716 -2.043673 -3.894582 15.69024 -14.73489 -0 21.65635 -0 -4.24491 -18.34144 11.67532 -1.27363 -0.9701683 2.368455 2.630191 8.311344 -9.188246 0.6215567 20.26944 8.687362 4.751314 -23.73415 8.483461 6.693746 -16.05473 10.92524 89.9448 36.03795 -26.19927 -0 0 11.45857 -11.16459 12.48781 6.549456 6.831895 -21.8531 -3.387046 -89.64344 32.2321 16.36477 0 0 -27.38177 -2.131846 12.47299 18.58715
1.861478 97.67307 36.16234 -2.736524 3.377665 2.845113 8.303764 -30.10035 3.594631 -0 14.71612 -0 -7.750804 -1.635083 -2.212899 -3.36874 15.01003 -13.24269 -0 30.31978 -0 -6.981871 -14.1631 9.664929 -1.398906 -0.8520176 2.629264 2.56254 8.485863 -8.99546 0.548351 20.47112 8.612485 4.669198 -23.52475 8.281827 6.57761 -16.13976 11.08883 89.46905 36.24258 -25.25336 -0 0 11.26869 -12.53427 12.85298 7.33189 6.445119 -21.73178 -3.405937 -89.44616 31.4685 16.45386 0 0 -26.5585 -1.956083 12.20589 18.1954
1.880205 98.28419 42.74397 -2.753339 1.946216 2.769472 8.189381 -24.78229 3.417594 -0 16.73669 -0 -7.958311 -3.115864 -2.88009 -3.054965 13.18905 -11.69004 -0 40.99661 -0 -8.719338 -9.681878 8.954836 -1.56493 -0.7082738 2.9928 2.452475 8.655011 -8.691783 0.4769334 20.77992 8.490199 4.558409 -23.26295 8.035563 6.415804 -16.30844 11.28734 88.73294 36.47172 -23.88271 -0 0 11.19098 -14.13519 13.16913 8.253796 5.923348 -21.47952 -3.410809 -89.43897 30.72677 16.86767 0 0 -25.34747 -1.895013 11.98666 17.89407
1.878042 99.48547 49.37138 -2.389046 -0.2141281 2.251725 7.890799 -18.80651 3.725101 -0 18.81577 -0 -7.796016 -4.815851 -3.821476 -2.939252 9.926382 -10.2224 -0 52.16843 -0 -9.132797 -6.026718 9.751506 -1.768157 -0.5553475 3.465755 2.289833 8.81495 -8.268 0.4184203 21.16901 8.324341 4.420566 -22.948 7.763967 6.215181 -16.57817 11.51195 87.69587 36.68273 -22.05941 -0 0 11.3064 -15.94417 13.44742 9.306296 5.29905 -21.08716 -3.391757 -89.62283 30.00257 17.61748 0 0 -23.79695 -1.930424 11.8143 17.67467
1.838143 101.0306 55.73163 -1.704131 -2.909516 1.397494 7.41922 -12.64156 4.267238 -0 19.87488 -0 -7.323396 -6.084476 -4.596218 -2.84429 5.076206 -8.985085 -0 61.19082 -0 -8.575669 -4.056092 11.70108 -1.998407 -0.4166191 4.045264 2.065269 8.960234 -7.723452 0.387175 21.59452 8.122848 4.258461 -22.58253 7.495616 5.9847 -16.96336 11.74727 86.34226 36.81243 -19.79657 -0 0 11.70657 -17.91473 13.71294 10.467 4.625909 -20.55664 -3.339102 -89.98281 29.2909 18.68827 0 0 -22.01363 -2.036735 11.68565 17.52763
1.750653 102.5349 61.6359 -0.9007234 -5.442171 0.439599 6.798198 -6.550248 4.645109 -0 19.11387 -0 -6.616398 -7.050595 -4.811902 -2.541301 -1.230344 -7.950413 -0 65.29317 -0 -7.753427 -3.835826 14.04553 -2.238492 -0.3177896 4.715974 1.773311 9.084603 -7.069926 0.3977928 22.00043 7.898202 4.0764 -22.17298 7.264554 5.73466 -17.46967 11.97286 84.69994 36.78745 -17.16575 -0 0 12.47249 -19.98098 14.00255 11.701 3.97267 -19.90447 -3.246678 -90.48467 28.58696 20.03096 0 0 -20.15398 -2.184421 11.59354 17.44365
1.643481 103.6109 67.11088 -0.1951431 -6.927581 -0.4295895 6.068013 -0.83203 4.59995 -0 16.49087 -0 -5.69506 -8.478335 -4.355714 -1.882586 -8.461678 -6.920674 -0 63.08673 -0 -7.182189 -4.693145 16.00086 -2.466468 -0.2794344 5.449603 1.416179 9.182236 -6.33366 0.4606848 22.32958 7.667087 3.880758 -21.73016 7.103363 5.476072 -18.0877 12.16693 82.85059 36.54442 -14.30294 -0 0 13.64557 -22.06423 14.35438 12.963 3.409785 -19.16219 -3.114818 -91.07727 27.88854 21.56176 0 0 -18.39446 -2.344531 11.5251 17.41377
